<svg width="31" height="38" viewBox="0 0 31 38" fill="none" xmlns="http://www.w3.org/2000/svg">
<path d="M26.6743 25.9707L30.4536 29.75V31.5957H0.39502V29.75L4.17432 25.9707V16.6543C4.17432 13.7246 4.90674 11.1758 6.37158 9.00781C7.89502 6.83984 9.9751 5.43359 12.6118 4.78906V3.4707C12.6118 2.70898 12.8755 2.06445 13.4028 1.53711C13.9302 0.951172 14.604 0.658203 15.4243 0.658203C16.2446 0.658203 16.9185 0.951172 17.4458 1.53711C17.9731 2.06445 18.2368 2.70898 18.2368 3.4707V4.78906C20.8735 5.43359 22.9243 6.83984 24.3892 9.00781C25.9126 11.1758 26.6743 13.7246 26.6743 16.6543V25.9707ZM15.4243 37.2207C14.3696 37.2207 13.4614 36.8691 12.6997 36.166C11.9966 35.4629 11.645 34.584 11.645 33.5293H19.2036C19.2036 34.5254 18.8228 35.4043 18.061 36.166C17.2993 36.8691 16.4204 37.2207 15.4243 37.2207Z" fill="white"/>
</svg>
